<svg xmlns="http://www.w3.org/2000/svg" viewBox="0 0 975 1014"><defs><style>.cls-1{fill:#17282f;}.cls-2{fill:#ff2d36;}.cls-3{fill:#f19645;}.cls-4{fill:#f8f2d2;}.cls-5{fill:#ee4540;}</style></defs><g id="Capa_2" data-name="Capa 2"><g id="Capa_1-2" data-name="Capa 1"><rect class="cls-1" x="5" y="5" width="965" height="1004"/><path d="M965,10v994H10V10H965M975,0H0V1014H975V0Z"/><path class="cls-2" d="M416.57,1000.93H960.64l1.79-982.26H931.91S912.15,646.12,732.6,817.92C609.39,935.8,416.57,1000.93,416.57,1000.93Z"/><path class="cls-3" d="M16.16,999.06S114.92,881.41,434.53,831C875.18,761.48,878,18.67,878,18.67h53.87s10.46,563.18-158,775c-163.4,205.41-301.66,207.28-301.66,207.28Z"/><path class="cls-4" d="M808,18.67h79s35,650-398.62,810.46C89.78,976.65,16.16,999.06,16.16,999.06L18,842.2S452,648,574.59,543.41C784.67,364.14,808,18.67,808,18.67Z"/><polygon class="cls-5" points="732.6 707.75 488.4 136.32 253.18 704.01 463.26 707.75 522.51 556.49 491.99 485.52 429.14 625.58 351.93 629.32 488.4 313.72 626.66 627.45 558.42 629.32 590.75 705.88 732.6 707.75"/></g></g></svg>